<?xml version="1.0" encoding="utf-8"?>
<!-- Generator: Adobe Illustrator 18.0.0, SVG Export Plug-In . SVG Version: 6.00 Build 0)  -->
<!DOCTYPE svg PUBLIC "-//W3C//DTD SVG 1.1//EN" "http://www.w3.org/Graphics/SVG/1.1/DTD/svg11.dtd">
<svg version="1.1" xmlns="http://www.w3.org/2000/svg" xmlns:xlink="http://www.w3.org/1999/xlink" x="0px" y="0px"
	 viewBox="0 0 750 750" style="enable-background:new 0 0 750 750;" xml:space="preserve">
<style type="text/css">
	.st0{enable-background:new    ;}
	.st1{fill-rule:evenodd;clip-rule:evenodd;fill:#010101;}
	.st2{fill-rule:evenodd;clip-rule:evenodd;fill:#FFFFFF;}
	.st3{fill-rule:evenodd;clip-rule:evenodd;fill:#E6E6E6;}
	.st4{fill-rule:evenodd;clip-rule:evenodd;fill:#CCCCCC;}
	.st5{fill-rule:evenodd;clip-rule:evenodd;fill:#B3B3B3;}
	.st6{fill-rule:evenodd;clip-rule:evenodd;fill:#999999;}
	.st7{fill-rule:evenodd;clip-rule:evenodd;fill:#808080;}
	.st8{fill-rule:evenodd;clip-rule:evenodd;fill:#676767;}
</style>
<g id="background_1_" class="st0">
	<g id="background">
		<g>
			<rect class="st1" width="750" height="750"/>
		</g>
	</g>
</g>
<g id="stickman_1_" class="st0">
	<g id="stickman">
		<g>
			<path class="st2" d="M399.351,473.214h24.351v-24.554h-24.351V473.214z M375,424.107v24.554h24.351v-24.554H375z
				 M496.753,448.661v-24.554h-24.351v24.554H496.753z M350.649,399.554v24.554H375v-24.554H350.649z M301.948,375v24.554h48.701
				V375H301.948z M521.104,473.214v-24.554h-24.351v24.554H521.104z M569.805,399.554h24.351V375h-24.351V399.554z M594.156,522.321
				v-24.554h-48.701v24.554H594.156z M545.455,497.768v-24.553h-24.351v24.553H545.455z M423.701,448.661h24.351v-24.554h-24.351
				V448.661z M545.455,350.446V375h24.351v-24.554H545.455z M594.156,375h24.351v-24.554h-24.351V375z M594.156,301.339v-73.661
				h-73.052v71.205h-48.701v24.554h48.701v27.009h24.351v-49.107H594.156z M545.455,252.232h24.351v24.554h-24.351V252.232z
				 M618.506,325.893v24.554h24.351v-24.554H618.506z M448.052,424.107h24.351v-24.554h-24.351V424.107z M448.052,347.991h24.351
				v-24.554h-24.351V347.991z M472.403,399.554h24.351V375h-24.351V399.554z M496.753,375h24.351v-24.554h-24.351V375z
				 M423.701,372.545h24.351v-24.554h-24.351V372.545z"/>
		</g>
	</g>
</g>
<g id="trail_1_">
	<g id="trail1_1_">
		<g id="Rectangle_1">
			<g>
				<rect x="253.359" y="424.219" class="st2" width="24.141" height="24.375"/>
			</g>
		</g>
		<g id="Rectangle_1_copy">
			<g>
				<rect x="228.984" y="424.219" class="st3" width="24.375" height="24.375"/>
			</g>
		</g>
		<g id="Rectangle_1_copy_2">
			<g>
				<rect x="204.609" y="424.219" class="st4" width="24.375" height="24.375"/>
			</g>
		</g>
		<g id="Rectangle_1_copy_3">
			<g>
				<rect x="180.234" y="424.219" class="st5" width="24.375" height="24.375"/>
			</g>
		</g>
		<g id="Rectangle_1_copy_4">
			<g>
				<rect x="155.859" y="424.219" class="st6" width="24.375" height="24.375"/>
			</g>
		</g>
		<g id="Rectangle_1_copy_5">
			<g>
				<rect x="131.484" y="424.219" class="st7" width="24.375" height="24.375"/>
			</g>
		</g>
		<g id="Rectangle_1_copy_6">
			<g>
				<rect x="107.109" y="424.219" class="st8" width="24.375" height="24.375"/>
			</g>
		</g>
	</g>
	<g id="trail2_1_">
		<g id="Rectangle_1_copy_1_">
			<g>
				<rect x="228.984" y="375" class="st3" width="24.375" height="24.609"/>
			</g>
		</g>
		<g id="Rectangle_1_copy_2_1_">
			<g>
				<rect x="204.609" y="375" class="st4" width="24.375" height="24.609"/>
			</g>
		</g>
		<g id="Rectangle_1_copy_3_1_">
			<g>
				<rect x="180.234" y="375" class="st5" width="24.375" height="24.609"/>
			</g>
		</g>
		<g id="Rectangle_1_copy_4_1_">
			<g>
				<rect x="155.859" y="375" class="st6" width="24.375" height="24.609"/>
			</g>
		</g>
	</g>
	<g id="trail3_1_">
		<g id="Rectangle_1_1_">
			<g>
				<rect x="253.359" y="325.781" class="st2" width="24.141" height="24.609"/>
			</g>
		</g>
		<g id="Rectangle_1_copy_2_">
			<g>
				<rect x="228.984" y="325.781" class="st3" width="24.375" height="24.609"/>
			</g>
		</g>
		<g id="Rectangle_1_copy_2_2_">
			<g>
				<rect x="204.609" y="325.781" class="st4" width="24.375" height="24.609"/>
			</g>
		</g>
		<g id="Rectangle_1_copy_3_2_">
			<g>
				<rect x="180.234" y="325.781" class="st5" width="24.375" height="24.609"/>
			</g>
		</g>
		<g id="Rectangle_1_copy_4_2_">
			<g>
				<rect x="155.859" y="325.781" class="st6" width="24.375" height="24.609"/>
			</g>
		</g>
		<g id="Rectangle_1_copy_5_1_">
			<g>
				<rect x="131.484" y="325.781" class="st7" width="24.375" height="24.609"/>
			</g>
		</g>
		<g id="Rectangle_1_copy_6_1_">
			<g>
				<rect x="107.109" y="325.781" class="st8" width="24.375" height="24.609"/>
			</g>
		</g>
	</g>
</g>
</svg>
