<?xml version="1.0" encoding="utf-8"?>
<!-- Generator: Adobe Illustrator 18.0.0, SVG Export Plug-In . SVG Version: 6.00 Build 0)  -->
<svg version="1.2" baseProfile="tiny" id="i_1_" xmlns="http://www.w3.org/2000/svg" xmlns:xlink="http://www.w3.org/1999/xlink"
	 x="0px" y="0px" viewBox="0 0 24 24" xml:space="preserve">
<g id="i">
	<path fill-rule="evenodd" fill="#010101" d="M13.335,9.407L9.992,9.949v0.378c0.446-0.071,0.739-0.107,0.882-0.107
		c0.174,0,0.312,0.045,0.412,0.136c0.1,0.091,0.15,0.207,0.15,0.349c0,0.181-0.103,0.626-0.31,1.337l-1.259,4.34
		c-0.161,0.555-0.242,0.953-0.242,1.192c0,0.239,0.084,0.438,0.252,0.596c0.168,0.158,0.384,0.237,0.649,0.237
		c0.4,0,0.82-0.171,1.259-0.513c0.594-0.458,1.111-1.024,1.55-1.695l-0.339-0.223c-0.375,0.536-0.746,0.949-1.114,1.24
		c-0.136,0.103-0.252,0.155-0.349,0.155c-0.084,0-0.157-0.032-0.218-0.097c-0.061-0.065-0.092-0.148-0.092-0.252
		c0-0.09,0.065-0.365,0.194-0.823L13.335,9.407z M13.209,5.561c-0.271,0-0.501,0.094-0.688,0.281
		c-0.187,0.187-0.281,0.417-0.281,0.688c0,0.265,0.095,0.493,0.286,0.683c0.19,0.191,0.418,0.286,0.683,0.286
		c0.265,0,0.492-0.095,0.683-0.286c0.19-0.19,0.286-0.418,0.286-0.683c0-0.271-0.094-0.5-0.281-0.688
		C13.709,5.654,13.48,5.561,13.209,5.561z M12,0C5.373,0,0,5.373,0,12s5.373,12,12,12s12-5.373,12-12S18.627,0,12,0z M11.906,22.172
		c-5.631,0-10.195-4.565-10.195-10.195S6.276,1.781,11.906,1.781s10.195,4.565,10.195,10.195S17.537,22.172,11.906,22.172z"/>
</g>
</svg>
