<svg xmlns="http://www.w3.org/2000/svg" xmlns:xlink="http://www.w3.org/1999/xlink" version="1.2" baseProfile="tiny" x="0px" y="0px" viewBox="0 0 24 24" xml:space="preserve"><style>.style0{fill-rule:	evenodd;fill:	#EC3030;}</style><g><path d="M12.199 16.576c-0.27 0-0.5 0.095-0.69 0.286c-0.19 0.19-0.286 0.417-0.286 0.681 c0 0.27 0.095 0.5 0.286 0.69c0.19 0.19 0.42 0.286 0.69 0.286c0.269 0 0.5-0.095 0.69-0.286c0.19-0.19 0.286-0.42 0.286-0.69 c0-0.264-0.095-0.491-0.286-0.681C12.698 16.672 12.468 16.576 12.199 16.576z M12 0C5.373 0 0 5.373 0 12s5.373 12 12 12 s12-5.373 12-12S18.627 0 12 0z M12 22.5C6.201 22.5 1.5 17.799 1.5 12S6.201 1.5 12 1.5S22.5 6.201 22.5 12S17.799 22.5 12 22.5z M12.216 6.082c-0.275 0-0.511 0.111-0.708 0.334c-0.196 0.223-0.294 0.519-0.294 0.888c0 0.152 0.018 0.384 0.053 0.694 l0.773 7.119h0.334l0.791-7.119c0.023-0.252 0.035-0.448 0.035-0.589c0-0.439-0.095-0.77-0.286-0.993 C12.725 6.194 12.492 6.082 12.216 6.082z" class="style0"/></g></svg>