<?xml version="1.0" encoding="utf-8"?>
<!-- Generator: Adobe Illustrator 18.0.0, SVG Export Plug-In . SVG Version: 6.00 Build 0)  -->
<svg version="1.2" baseProfile="tiny" xmlns="http://www.w3.org/2000/svg" xmlns:xlink="http://www.w3.org/1999/xlink" x="0px"
	 y="0px" viewBox="0 0 12 12" xml:space="preserve">
<g id="background_1_">
	<g id="background">
		<rect fill-rule="evenodd" fill="#010101" width="12" height="12"/>
	</g>
</g>
<g id="stickman_1_">
	<g id="stickman">
		<path fill="#FFFFFF" d="M8.25,4.5H9h0.75V3.75V3V2.25H9H8.25H7.5V3v0.75V4.5H6.75H6v0.75h0.75H7.5V6h0.75V5.25V4.5z M8.25,3H9
			v0.75H8.25V3z M8.25,6v0.75H9V6H8.25z M9,7.5h0.75V6.75H9V7.5z M9.75,6.75h0.75V6H9.75V6.75z M10.5,5.25V6h0.75V5.25H10.5z
			 M6.75,6.75H7.5V6H6.75V6.75z M6,7.5h0.75V6.75H6V7.5z M5.25,8.25H6V7.5H5.25V8.25z M4.5,9h0.75V8.25H4.5V9z M3.75,9.75H4.5V9
			H3.75V9.75z M3,8.25V9h0.75V8.25H3z M2.25,7.5v0.75H3V7.5H2.25z M1.5,6.75H0.75V7.5H1.5h0.75V6.75H1.5z M6.75,9V8.25H6V9H6.75z
			 M7.5,9.75V9H6.75v0.75H7.5z M8.25,10.5H9V9.75H8.25H7.5v0.75H8.25z M5.25,6H6V5.25H5.25V6z M4.5,6.75h0.75V6H4.5V6.75z"/>
	</g>
</g>
</svg>
